<?xml version="1.0" standalone="no"?>
<!DOCTYPE svg PUBLIC "-//W3C//DTD SVG 20010904//EN"
 "http://www.w3.org/TR/2001/REC-SVG-20010904/DTD/svg10.dtd">
<svg version="1.0" xmlns="http://www.w3.org/2000/svg"
 width="300.000000pt" height="242.000000pt" viewBox="0 0 300.000000 242.000000"
 preserveAspectRatio="xMidYMid meet">
<metadata>
Created by potrace 1.10, written by Peter Selinger 2001-2011
</metadata>
<g transform="translate(0.000000,242.000000) scale(0.100000,-0.100000)"
fill="#000000" stroke="none">
<path d="M0 2400 c0 -7 507 -10 1500 -10 993 0 1500 3 1500 10 0 7 -507 10
-1500 10 -993 0 -1500 -3 -1500 -10z"/>
<path d="M1809 2086 c-45 -16 -70 -33 -131 -92 -63 -60 -103 -112 -94 -122 4
-4 22 11 39 32 48 60 172 154 213 162 29 5 40 2 61 -17 23 -22 25 -29 20 -89
-2 -36 -11 -84 -19 -106 -12 -35 -13 -44 -1 -60 10 -14 13 -75 13 -269 0 -235
-1 -253 -19 -269 -17 -15 -40 -17 -187 -15 -180 2 -220 -9 -107 -30 119 -21
143 -30 143 -51 0 -19 -8 -20 -146 -20 l-146 0 -76 -71 c-93 -85 -190 -137
-230 -123 -45 16 -56 53 -37 125 17 67 53 155 60 148 2 -3 -5 -33 -15 -68 -25
-79 -27 -159 -4 -168 61 -23 293 212 469 477 39 58 72 107 75 110 23 23 141
262 164 333 18 55 21 113 5 122 -18 12 -111 -42 -192 -111 l-78 -65 -214 1
c-228 1 -272 -6 -294 -48 -7 -13 -11 -113 -11 -277 l0 -257 32 -29 31 -30 -20
-37 c-57 -102 -60 -196 -6 -239 36 -29 65 -29 132 3 49 22 78 44 194 146 37
33 50 35 187 36 72 0 116 4 125 12 20 16 19 56 -1 64 -33 13 1 26 67 26 61 0
73 3 95 25 l25 25 -1 292 c0 166 4 310 9 333 24 93 1 174 -55 195 -31 12 -31
12 -75 -4z m28 -135 c-4 -17 -14 -47 -24 -68 l-18 -38 -72 0 c-39 0 -75 3 -79
7 -13 14 148 128 180 128 15 0 17 -5 13 -29z m-47 -143 c-1 -42 -5 -43 -327
-43 l-308 0 -3 -47 c-3 -43 -5 -48 -28 -48 -23 0 -24 3 -24 59 0 37 5 63 13
70 9 7 119 12 338 14 178 1 327 3 332 5 4 1 7 -4 7 -10z m-412 -65 c-10 -3
-18 -14 -18 -25 0 -17 3 -18 15 -8 8 7 21 10 30 6 8 -3 14 -2 14 2 -7 48 46
44 96 -8 38 -39 39 -39 121 -42 l83 -3 -27 -42 -27 -43 -100 0 c-90 0 -98 1
-84 16 19 18 116 29 134 14 9 -7 16 -6 25 5 15 18 15 18 -75 15 -60 -1 -74 -5
-97 -28 -34 -31 -50 -21 -19 12 15 16 19 25 10 28 -7 2 -9 10 -5 16 5 8 13 9
25 2 20 -10 31 -4 31 16 0 8 -8 10 -27 5 -28 -7 -61 -52 -62 -83 -1 -29 -43
-21 -83 17 -21 20 -38 38 -38 42 0 3 29 3 65 1 50 -4 65 -3 65 7 0 10 -14 12
-57 8 -32 -2 -53 -1 -47 4 6 4 11 16 11 25 0 21 -23 32 -25 12 -1 -8 -3 -21
-4 -29 -1 -12 -17 -15 -75 -15 -72 0 -86 7 -59 29 9 8 16 8 20 2 4 -7 15 -7
30 -1 13 5 26 6 29 3 7 -7 47 6 47 16 0 4 -31 6 -70 4 -57 -2 -70 0 -70 13 0
12 18 14 118 13 64 -1 109 -4 100 -6z m382 4 c0 -2 -7 -18 -16 -35 l-15 -32
-82 0 c-80 0 -83 1 -116 35 l-34 35 132 0 c72 0 131 -2 131 -3z m-610 -117 c0
-25 -4 -30 -25 -30 -21 0 -25 5 -25 30 0 25 4 30 25 30 21 0 25 -5 25 -30z
m52 0 l17 -30 -29 0 c-27 0 -30 3 -30 30 0 39 20 39 42 0z m111 -16 l44 -45
90 -3 c49 -1 94 -6 101 -9 6 -4 13 -3 17 3 3 5 26 10 51 10 l45 0 -18 -31
c-17 -30 -20 -31 -70 -26 -42 4 -53 3 -53 -9 0 -8 -4 -14 -10 -14 -5 0 -10 11
-10 24 0 14 -4 27 -9 31 -6 3 -8 -7 -6 -22 2 -16 4 -36 4 -45 1 -24 16 -23 41
2 11 11 28 20 37 20 13 0 10 -7 -13 -31 l-29 -30 -130 2 c-75 1 -129 -2 -127
-7 3 -12 52 -25 52 -13 0 5 49 9 108 9 l108 0 34 35 c18 19 36 33 38 30 2 -2
-13 -29 -34 -59 l-39 -56 -184 2 -184 3 -1 63 -2 62 40 0 c25 0 47 -7 60 -19
17 -16 39 -20 110 -22 61 -2 91 0 93 8 3 8 -12 10 -49 7 -60 -6 -140 6 -145
21 -2 6 25 9 67 8 49 -1 70 2 70 10 0 9 -32 11 -125 9 l-125 -4 0 32 0 33 50
-6 c40 -5 50 -3 50 8 0 8 -4 15 -10 15 -15 0 -50 33 -44 42 3 4 18 8 34 8 22
0 41 -12 73 -46z m-163 -54 c0 -25 -4 -30 -25 -30 -21 0 -25 5 -25 30 0 25 4
30 25 30 21 0 25 -5 25 -30z m0 -158 l0 -113 155 3 c85 2 155 1 155 -2 0 -12
-49 -64 -50 -52 0 9 -35 12 -143 12 -98 0 -147 4 -155 12 -8 8 -12 52 -12 134
l0 122 25 -2 25 -1 0 -113z m243 -52 c12 -14 29 -20 57 -20 25 0 39 -4 35 -10
-4 -6 -70 -10 -166 -10 l-159 0 0 23 c0 13 3 27 7 30 3 4 52 7 107 7 89 0 104
-2 119 -20z m121 5 c-10 -24 -114 -18 -114 6 0 5 27 9 60 9 49 0 58 -3 54 -15z
m-114 -142 c0 -4 -14 -22 -32 -40 -30 -31 -36 -33 -100 -33 -37 0 -68 3 -68 8
1 21 24 33 100 51 102 23 100 23 100 14z m-160 -105 l34 -10 -37 -34 c-49 -46
-77 -46 -77 0 0 49 9 68 29 60 9 -3 32 -11 51 -16z"/>
<path d="M1277 1573 c-16 -16 -4 -28 27 -28 32 0 34 1 19 18 -17 18 -35 22
-46 10z"/>
<path d="M1866 1774 c-3 -9 -6 -72 -6 -140 0 -104 2 -124 15 -124 13 0 15 22
15 140 0 127 -8 167 -24 124z"/>
<path d="M1802 1639 l-33 -61 25 6 c29 7 42 -7 22 -23 -10 -8 -16 -9 -21 -1
-11 18 -30 11 -48 -19 l-17 -30 55 0 55 0 0 95 c0 52 -1 94 -2 94 -2 0 -18
-28 -36 -61z"/>
<path d="M1673 1428 c-26 -40 -50 -77 -52 -82 -2 -4 39 -6 92 -5 58 3 94 0 93
-6 0 -6 -41 -8 -102 -6 -66 2 -104 -1 -108 -8 -5 -8 30 -11 118 -11 l126 0 0
36 0 37 -80 -5 c-61 -4 -80 -2 -80 8 0 10 20 12 80 10 l80 -2 0 50 0 50 -32
-31 c-24 -22 -42 -30 -65 -29 -18 0 -32 6 -30 11 1 6 13 9 27 7 17 -2 34 6 50
23 l23 25 -46 0 -46 0 -48 -72z"/>
<path d="M1860 1445 c0 -42 3 -55 15 -55 12 0 15 13 15 55 0 42 -3 55 -15 55
-12 0 -15 -13 -15 -55z"/>
<path d="M1860 1334 l0 -45 -141 2 c-119 2 -143 0 -157 -14 -15 -16 -5 -17
144 -17 111 0 164 4 172 12 18 18 16 108 -3 108 -11 0 -15 -12 -15 -46z"/>
<path d="M1487 1187 l-24 -32 128 -2 c71 -1 129 2 129 6 0 5 -39 16 -87 26
-49 9 -95 21 -104 26 -13 6 -23 1 -42 -24z"/>
<path d="M930 872 c-19 -2 -43 -11 -53 -20 -22 -19 -117 -205 -117 -228 0 -32
25 4 80 115 l54 111 733 0 c403 0 733 -3 733 -7 -1 -5 -29 -59 -63 -121 l-62
-113 -711 1 c-392 0 -719 -3 -728 -6 -9 -3 -13 -10 -10 -15 3 -5 313 -9 728
-9 l723 0 20 22 c11 13 43 66 70 118 42 81 48 99 40 123 -8 25 -13 27 -60 27
-29 0 -342 1 -697 3 -355 1 -661 1 -680 -1z"/>
<path d="M944 800 c69 -12 74 -15 84 -52 13 -49 -5 -96 -37 -101 l-26 -4 27
-2 c57 -3 81 97 33 144 -20 21 -33 25 -77 24 l-53 -1 49 -8z"/>
<path d="M1093 736 c3 -73 17 -122 17 -58 0 30 2 32 35 32 19 0 35 5 35 10 0
6 -16 10 -35 10 -33 0 -35 2 -35 34 0 34 1 35 43 39 40 3 40 4 -10 5 l-52 2 2
-74z"/>
<path d="M1230 729 c0 -51 4 -78 10 -74 6 3 10 40 10 81 0 43 -4 74 -10 74 -6
0 -10 -34 -10 -81z"/>
<path d="M1357 803 c18 -2 50 -2 70 0 21 2 7 4 -32 4 -38 0 -55 -2 -38 -4z"/>
<path d="M1529 783 c-6 -16 -19 -50 -30 -77 -10 -28 -16 -52 -12 -55 3 -3 8 0
10 7 3 7 23 12 49 12 24 0 44 4 44 9 0 6 -20 8 -44 6 l-43 -3 18 38 c11 22 19
48 19 60 0 28 20 26 20 -2 1 -13 7 -36 15 -53 11 -25 14 -27 14 -9 1 28 -26
94 -39 94 -6 0 -15 -12 -21 -27z"/>
<path d="M1667 803 c-12 -11 -8 -60 6 -71 6 -6 25 -14 40 -17 16 -4 31 -14 34
-21 3 -8 9 -11 14 -8 18 11 8 23 -37 40 -39 15 -45 21 -42 43 4 32 32 39 59
15 22 -20 38 -12 19 11 -12 15 -80 21 -93 8z"/>
<path d="M1835 785 c-19 -18 -25 -35 -25 -70 0 -25 4 -44 9 -41 5 3 11 -4 14
-15 3 -12 10 -18 16 -14 8 4 6 13 -4 28 -43 62 14 145 79 116 57 -26 61 -120
6 -142 -13 -5 -13 -6 1 -6 20 -1 46 27 54 59 7 31 -9 78 -33 96 -29 23 -90 17
-117 -11z"/>
<path d="M2024 760 c0 -28 3 -44 8 -37 6 9 8 9 8 0 0 -8 14 -13 35 -13 19 0
35 5 35 10 0 6 -16 10 -35 10 -33 0 -35 2 -35 34 0 34 1 35 48 39 l47 3 -55 2
-56 2 0 -50z"/>
<path d="M2168 803 l32 -4 1 -77 c0 -50 3 -70 9 -57 4 11 7 46 6 77 -1 56 -1
57 29 61 16 2 -1 4 -40 4 -38 0 -55 -2 -37 -4z"/>
<path d="M1380 715 c0 -43 4 -75 10 -75 6 0 10 32 10 75 0 43 -4 75 -10 75 -6
0 -10 -32 -10 -75z"/>
<path d="M900 714 c0 -41 4 -63 10 -59 6 3 10 33 10 66 0 33 -4 59 -10 59 -6
0 -10 -29 -10 -66z"/>
<path d="M52 42 c-37 -2 -52 -7 -52 -18 0 -12 197 -14 1500 -14 1422 0 1500 1
1500 18 0 16 -76 17 -1448 17 -796 0 -1471 -1 -1500 -3z"/>
</g>
</svg>
